*******************************************************

Hugo 2011 1080p BluRay x264 4 Audio - alrmothe

*******************************************************

Title : Hugo
YEAR: 2011
GENRE : Adventure | Drama | Family    
imdb URL :http://www.imdb.com/title/tt0970179/
Format: Matroska
Overall bit rate: 7330 Kbps
Format version: Version 4 / Version 2
File size:  6.47 GiB
Duration:  2h 6mn
Sub:Arabic,English,English SD,Spanish,French,Danish
Portuguese,Finnish,Hungarian,Romanian,
Swedish,Korean,Turkish
*******************************************************

Video
Format : AVC 
Format/Info : Advanced Video Codec 
Format profile : High@L5.0 
Format settings, CABAC : Yes 
Format settings, ReFrames : 9 frames  
Codec ID : V_MPEG4/ISO/AVC  
Bit rate : 6000 Kbps 
Width : 1920 pixels 
Height : 1080 pixels 
Display aspect ratio : 16:9 
Frame rate : 23.976 fps 
Color space : YUV 
Chroma subsampling : 4:2:0 
Bit depth : 8 bits 
Scan type : Progressive 
Bits/(Pixel*Frame) : 0.121 
Stream size: 5.18 GiB 
Title: Hugo 2011 1080p BluRay x264 4 Audio - alrmothe


Audio#1 
Format: DTS
Format/Info: Digital Theater Systems
Mode: 16
Format settings, Endianness: Big
Codec ID: A_DTS
Bit rate mode: Constant
Bit rate : 755 Kbps
Channel(s) : 6 channels
Channel positions:Front: L C R, Side: L R, LFE
Sampling rate: 48.0 KHz
Bit depth: 24 bits
Compression mode: Lossy
Stream size: 682 MiB
Language : English


Audio #2Audio #2
Format: AAC
Format/Info: Advanced Audio Codec
Format profile: LC
Codec ID : A_AAC
Channel(s): 2 channels
Channel positions: Front: L R
Sampling rate : 48.0 KHz
Compression mode: Lossy
Language : French



Audio #3
Format: AAC
Format/Info: Advanced Audio Codec
Format profile  : LC
Codec ID: A_AAC
Duration: 2h 6mn
Channel(s): 2 channels
Channel positions: Front: L R
Sampling rate: 48.0 KHz
Compression mode: Lossy
Language: Spanish


Audio #4
Format: AAC
Format/Info : Advanced Audio Codec
Format profile: LC
Codec ID: A_AAC
Channel(s) : 2 channels
Channel positions : Front: L R
Sampling rate: 48.0 KHz
Compression mode: Lossy
Language: Portuguese

*******************************************************


Screenshots 
http://img842.imageshack.us/img842/6454/vlcsnap2013040509h24m49.png 
http://img856.imageshack.us/img856/6453/vlcsnap2013040509h25m29.png 
http://img51.imageshack.us/img51/5630/vlcsnap2013040509h26m12.png 
http://img15.imageshack.us/img15/4908/vlcsnap2013040509h26m45.png 
http://img849.imageshack.us/img849/1723/vlcsnap2013040509h28m17.png 
http://img833.imageshack.us/img833/2892/vlcsnap2013040509h35m00.png
